<?xml version="1.0" standalone="no"?>
<!DOCTYPE svg PUBLIC "-//W3C//DTD SVG 20010904//EN"
 "http://www.w3.org/TR/2001/REC-SVG-20010904/DTD/svg10.dtd">
<svg version="1.0" xmlns="http://www.w3.org/2000/svg"
 width="500.000000pt" height="500.000000pt" viewBox="0 0 500.000000 500.000000"
 preserveAspectRatio="xMidYMid meet">

<g transform="translate(0.000000,500.000000) scale(0.100000,-0.100000)"
fill="#000000" stroke="none">
<path d="M1900 4062 c-21 -17 -30 -66 -120 -693 -54 -371 -101 -694 -105 -719
-10 -68 12 -86 115 -95 l81 -7 -6 -32 c-12 -61 -2 -64 227 -79 115 -7 211 -16
214 -20 5 -5 -54 -166 -171 -467 -19 -47 -57 -146 -85 -220 -29 -74 -67 -174
-86 -222 -19 -48 -34 -96 -34 -107 0 -25 25 -44 47 -37 10 3 94 116 187 251
93 135 170 245 172 245 4 0 -13 -46 -80 -220 -147 -377 -152 -390 -123 -390 7
0 58 64 112 142 676 974 1069 1547 1072 1564 8 36 -31 54 -115 54 l-74 0 21
34 c26 42 26 61 1 86 -19 19 -33 20 -225 20 -117 0 -205 4 -205 9 0 11 56 142
204 475 58 132 106 247 106 256 0 30 -23 40 -95 40 -40 0 -74 3 -78 6 -3 4 0
19 8 35 21 39 19 62 -8 87 -23 22 -25 22 -479 22 -427 0 -457 -1 -478 -18z
m938 -43 c2 -9 -78 -200 -178 -424 -99 -224 -180 -414 -180 -421 0 -8 9 -23
20 -34 19 -19 33 -20 309 -20 159 0 296 -3 305 -6 9 -3 16 -14 16 -23 0 -9
-128 -200 -284 -426 -157 -225 -349 -503 -428 -618 -79 -114 -193 -279 -254
-367 -62 -88 -129 -187 -150 -220 -22 -33 -42 -60 -46 -60 -3 0 3 24 14 53 11
28 46 120 78 202 31 83 117 304 189 493 78 203 130 350 126 361 -14 45 -33 50
-225 60 -373 21 -411 24 -426 36 -15 10 -11 49 40 401 127 884 147 1018 152
1026 3 4 211 7 462 6 412 -3 457 -5 460 -19z"/>
<path d="M2353 918 l-43 -9 0 -225 0 -224 34 0 c43 0 51 23 47 139 -3 89 2
101 46 101 46 0 56 -26 49 -122 -3 -48 -3 -94 0 -103 7 -16 41 -20 62 -6 17
10 25 269 9 289 -14 17 -91 6 -136 -20 -19 -11 -30 -14 -24 -6 14 17 22 198 8
197 -5 -1 -29 -5 -52 -11z"/>
<path d="M1688 883 c-21 -2 -38 -9 -38 -14 0 -20 53 -134 91 -197 39 -64 40
-69 37 -139 l-3 -73 30 0 c71 0 75 5 75 86 0 64 4 80 30 122 34 55 100 195
100 211 0 6 -12 11 -27 11 -60 0 -70 -9 -103 -88 -17 -43 -40 -88 -51 -102
l-21 -25 7 28 c4 21 3 27 -6 21 -8 -5 -11 -1 -7 12 6 26 -45 149 -63 150 -8 0
-31 -1 -51 -3z"/>
<path d="M3365 816 c-16 -7 -39 -23 -49 -35 -13 -15 -31 -21 -58 -21 -101 0
-163 -93 -108 -163 18 -22 18 -26 4 -38 -30 -24 -36 -49 -20 -73 14 -22 13
-25 -10 -45 -30 -26 -31 -65 -2 -85 32 -22 132 -20 184 3 23 10 53 34 67 53
30 39 40 85 18 80 -12 -3 -12 0 -1 12 14 18 16 18 -125 17 -54 0 -75 3 -65 9
11 7 12 10 2 10 -8 0 -12 6 -10 12 3 8 19 12 41 10 35 -3 121 30 134 52 3 5 1
6 -5 2 -8 -5 -10 -2 -6 8 3 9 10 13 15 10 5 -3 9 13 9 36 0 23 -4 39 -9 35 -6
-3 -8 5 -5 19 3 21 1 23 -18 19 -19 -4 -20 -3 -8 6 8 6 23 11 32 11 13 0 48
49 48 67 0 7 -26 2 -55 -11z m-68 -122 c15 -24 15 -29 2 -53 -9 -14 -23 -25
-32 -25 -9 1 -14 -2 -11 -7 3 -5 -2 -9 -11 -9 -9 0 -13 5 -10 11 4 6 0 9 -11
7 -12 -2 -21 6 -28 24 -23 64 63 109 101 52z m19 -249 c19 -15 19 -15 -5 -35
-16 -13 -38 -20 -68 -20 -70 0 -102 27 -71 58 17 17 120 15 144 -3z"/>
<path d="M1410 762 c-8 -2 -29 -13 -47 -24 -30 -18 -31 -20 -17 -46 10 -20 14
-70 14 -198 l0 -171 43 8 c23 4 45 8 50 9 4 0 7 20 7 45 0 33 -4 45 -15 45 -8
0 -15 6 -15 14 0 10 13 14 45 14 24 -1 50 4 58 10 8 7 16 10 19 7 2 -3 18 9
34 26 26 27 29 38 35 122 9 118 -2 136 -77 137 -28 0 -59 -6 -69 -14 -17 -12
-21 -12 -35 3 -8 10 -22 16 -30 13z m110 -77 c19 -23 9 -148 -14 -174 l-19
-21 -13 26 c-8 15 -14 43 -14 64 0 21 -7 43 -15 50 -17 14 -14 48 6 61 21 13
55 11 69 -6z"/>
<path d="M2980 759 c0 -5 -4 -7 -10 -4 -9 5 -25 -1 -58 -23 -10 -7 -9 -16 3
-46 12 -28 15 -63 13 -132 l-3 -94 38 0 c20 0 37 5 37 11 0 5 4 8 9 5 14 -9
21 20 21 90 0 42 -4 63 -11 62 -6 -2 -14 3 -16 10 -3 7 3 12 14 13 17 0 17 1
-1 8 -24 9 -15 15 49 30 50 12 51 12 47 46 -4 32 -6 34 -31 29 -14 -4 -42 -18
-61 -32 -19 -15 -29 -19 -21 -9 7 9 11 24 7 32 -6 17 -26 20 -26 4z"/>
<path d="M3510 748 c-57 -29 -80 -73 -80 -151 0 -100 34 -139 119 -139 64 1
117 25 123 55 5 23 3 24 -26 16 -48 -14 -65 -11 -90 15 -13 12 -31 26 -40 29
-38 15 -12 27 57 27 113 0 117 3 117 67 0 44 -5 58 -25 78 -32 33 -94 33 -155
3z m92 -73 c4 -16 6 -31 4 -33 -2 -2 -21 0 -41 4 -32 6 -36 10 -32 30 2 14 -1
24 -7 24 -6 0 -2 7 8 15 17 13 23 13 40 2 11 -8 23 -27 28 -42z"/>
<path d="M2086 739 c-41 -33 -56 -71 -56 -147 0 -55 4 -75 20 -95 26 -32 75
-47 127 -38 53 10 63 18 63 46 0 22 -3 24 -29 19 -23 -5 -35 -1 -56 20 -24 24
-26 33 -23 91 2 38 -1 65 -7 65 -5 0 -1 8 8 17 23 23 48 8 61 -36 8 -27 13
-32 35 -29 19 2 27 10 30 28 l4 25 8 -25 c6 -23 7 -22 8 9 2 51 -28 71 -104
71 -48 0 -68 -5 -89 -21z"/>
<path d="M2657 753 c-12 -3 -17 -12 -15 -26 3 -19 8 -22 49 -19 55 3 79 -15
79 -58 0 -27 -2 -28 -34 -20 -73 16 -126 -20 -126 -86 0 -73 79 -111 139 -67
27 21 28 21 39 2 13 -20 72 -27 72 -9 0 5 7 7 15 4 11 -5 15 1 15 24 0 21 -6
31 -20 35 -16 4 -20 14 -20 45 0 23 5 44 11 48 16 10 5 91 -15 113 -14 15 -32
19 -94 19 -42 0 -85 -2 -95 -5z m97 -169 c19 -18 20 -28 5 -55 -7 -15 -16 -18
-32 -13 -21 7 -46 31 -47 46 0 11 31 38 45 38 7 0 21 -7 29 -16z"/>
</g>
</svg>
